<svg width="42" height="51" viewBox="0 0 42 51" fill="none" xmlns="http://www.w3.org/2000/svg">
<path d="M15.4506 8C13.5477 8 12.0001 9.54762 12.0001 11.4523C12.0001 13.3552 13.5477 14.9045 15.4506 14.9045C17.3519 14.9045 18.8995 13.3552 18.8995 11.4523C18.8995 9.54762 17.3519 8 15.4506 8ZM15.4506 13.4461C14.351 13.4461 13.4584 12.5502 13.4584 11.4523C13.4584 10.3526 14.351 9.45837 15.4506 9.45837C16.5486 9.45837 17.4412 10.3526 17.4412 11.4523C17.4412 12.5502 16.5486 13.4461 15.4506 13.4461Z" fill="#C9C4C4"/>
<path d="M26.4489 8C24.5459 8 23 9.54762 23 11.4523C23 13.3552 24.5459 14.9045 26.4489 14.9045C28.3502 14.9045 29.8978 13.3552 29.8978 11.4523C29.8978 9.54762 28.3502 8 26.4489 8ZM26.4489 13.4461C25.3509 13.4461 24.4567 12.5502 24.4567 11.4523C24.4567 10.3526 25.3509 9.45837 26.4489 9.45837C27.5469 9.45837 28.4411 10.3526 28.4411 11.4523C28.4411 12.5502 27.5469 13.4461 26.4489 13.4461Z" fill="#C9C4C4"/>
<path d="M34.0202 37.4903C33.6211 37.4347 33.254 37.7142 33.1984 38.1134C32.3615 44.2365 27.0686 48.8524 20.8865 48.8524C11.8837 48.8524 5.84644 39.506 9.54793 31.2947C11.4644 31.9262 13.7445 32.3776 16.2318 32.6268C16.4238 33.0478 16.3548 32.9215 19.546 36.1178C20.2853 36.8571 21.486 36.8571 22.2253 36.1178C25.4165 32.9232 25.3492 33.0478 25.5395 32.6268C28.0234 32.3776 30.3019 31.9279 32.2166 31.2981C32.7303 32.4348 33.0721 33.649 33.2237 34.8969C33.2725 35.2977 33.638 35.5806 34.0337 35.5334C34.4345 35.4846 34.7191 35.1208 34.6703 34.7217C34.3082 31.7275 32.9424 28.7872 30.6269 26.5054C28.8519 24.4778 12.8773 24.5182 11.1427 26.507C8.49879 29.1139 7 32.6167 7 36.4108C7 44.0748 13.2292 50.3108 20.8865 50.3108C24.263 50.3108 27.5182 49.0831 30.051 46.8535C32.5619 44.644 34.192 41.6111 34.6433 38.3121C34.6972 37.913 34.4177 37.5442 34.0202 37.4903ZM20.8865 35.2118C20.6373 35.2118 20.7568 35.2657 18.2864 32.7935C20.0007 32.8861 21.7706 32.8861 23.4849 32.7935C21.0162 35.264 21.1357 35.2118 20.8865 35.2118ZM28.7644 27.1655C25.361 28.0715 16.5468 28.1085 13.0069 27.1655C16.4996 26.2359 25.27 26.2342 28.7644 27.1655ZM11.5772 28.1658C14.3222 29.7353 27.562 29.6747 30.1941 28.1658C30.6859 28.7232 31.1372 29.3379 31.5279 29.9862C25.5462 31.8639 16.2234 31.8639 10.2418 29.9846C10.6308 29.3396 11.077 28.7316 11.5772 28.1658Z" fill="#C9C4C4"/>
<path d="M40.0883 7.34236H37.6784C35.9506 3.04304 31.7439 0 26.8384 0H15.1428C10.2389 0 6.0305 3.04304 4.30269 7.34236H1.89453C0.84875 7.34236 0 8.19279 0 9.23858V13.8427C0 14.8885 0.84875 15.7389 1.89453 15.7389H4.18649C5.83516 20.1949 10.1244 23.381 15.1428 23.381H26.8384C31.8568 23.381 36.146 20.1949 37.7946 15.7389H40.0883C41.1324 15.7389 41.9811 14.8885 41.9811 13.8427V9.23858C41.9811 8.19279 41.1324 7.34236 40.0883 7.34236ZM3.7537 14.2806H1.89453C1.65708 14.2806 1.45668 14.0785 1.45668 13.8427V9.23858C1.45668 9.00113 1.65708 8.80073 1.89453 8.80073H3.82611C3.37311 10.5774 3.34448 12.4753 3.7537 14.2806ZM37.0503 12.1233C36.8196 17.5594 32.3367 21.9227 26.8384 21.9227H15.1428C10.6026 21.9227 6.74453 18.9419 5.41583 14.8329C5.41247 14.8178 5.4091 14.8026 5.40405 14.7874C3.31248 8.24668 8.20795 1.46005 15.1428 1.46005H26.8384C32.6685 1.46005 37.2911 6.34373 37.0503 12.1233ZM40.5244 13.8427C40.5244 14.0785 40.324 14.2806 40.0883 14.2806H38.2274C38.6333 12.4871 38.6114 10.5909 38.155 8.80073H40.0883C40.324 8.80073 40.5244 9.00113 40.5244 9.23858V13.8427Z" fill="#C9C4C4"/>
<path d="M26.1289 3H22.4661C22.0636 3 21.7386 3.3267 21.7386 3.72918C21.7386 4.13167 22.0636 4.45837 22.4661 4.45837H26.1289C29.96 4.45837 33.0755 7.57887 33.0755 11.4134C33.0755 15.2479 29.96 18.3668 26.1289 18.3668H15.4033C11.5738 18.3668 8.45668 15.2479 8.45668 11.4134C8.45668 7.57887 11.5738 4.45837 15.4033 4.45837H19.0661C19.4685 4.45837 19.7952 4.13335 19.7952 3.72918C19.7952 3.3267 19.4685 3 19.0661 3H15.4033C10.7689 3 7 6.77391 7 11.4134C7 16.0529 10.7689 19.8268 15.4033 19.8268H26.1289C30.7633 19.8268 34.5339 16.0529 34.5339 11.4134C34.5339 6.77391 30.7633 3 26.1289 3Z" fill="#C9C4C4"/>
</svg>
