<svg width="194" height="97" viewBox="0 0 194 97" fill="none" xmlns="http://www.w3.org/2000/svg">
<path d="M66.9205 57.1223H73.921C79.8387 57.1223 82.7184 53.5674 82.7184 48.0791C82.7184 42.5791 79.8387 39.0359 73.921 39.0359H66.9205V57.1223ZM71.6089 53.0133V43.1096H73.6752C76.5178 43.1096 77.7842 44.77 77.7842 48.0791C77.7842 51.3764 76.5178 53.0133 73.6752 53.0133H71.6089Z" fill="#C9C4C4"/>
<path d="M97.4816 50.4654C97.4563 45.7787 94.5901 43.8219 90.7876 43.8219C86.5556 43.8219 83.6759 46.3075 83.6759 50.6254C83.6759 54.9079 86.4444 57.3682 90.9357 57.3682C94.0613 57.3682 96.5335 55.8425 97.3334 53.0369L93.1991 52.5081C92.8303 53.468 92.0186 53.8991 90.9105 53.8991C89.4841 53.8991 88.3154 53.1245 88.1302 51.4994H97.431L97.4816 50.4654ZM90.8128 46.9222C92.0422 46.9222 92.9903 47.6244 93.1385 48.9767H88.179C88.4501 47.5015 89.3477 46.9222 90.8128 46.9222Z" fill="#C9C4C4"/>
<path d="M107.949 44.093L105.034 52.1023L102.155 44.093H97.4427L103.054 57.1224H106.991L112.687 44.093H107.949Z" fill="#C9C4C4"/>
<path d="M141.771 57.1223L140.208 39.0359H133.38L130.513 48.2761L127.683 39.0359H120.83L119.244 57.1223H123.956L125.148 44.3153L128.976 57.1223H132.076L135.902 44.3759L137.083 57.1223H141.771Z" fill="#C9C4C4"/>
<path d="M150.541 57.3682C154.982 57.3682 158.059 54.9079 158.059 50.6018C158.059 46.3075 155.007 43.8472 150.541 43.8472C146.112 43.8472 143.061 46.3075 143.061 50.6018C143.061 54.9079 146.136 57.3682 150.541 57.3682ZM150.492 53.8739C148.684 53.8739 147.527 52.5334 147.527 50.6018C147.527 48.6584 148.684 47.3163 150.492 47.3163C152.411 47.3163 153.593 48.6584 153.593 50.6018C153.593 52.5334 152.411 53.8739 150.492 53.8739Z" fill="#C9C4C4"/>
<path d="M164.984 57.1224H167.752V53.7762H166.595C165.71 53.7762 165.267 53.3451 165.267 52.2387V47.5015H167.752V44.093H165.267V39.984H161.255V41.3245C161.255 43.5878 160.321 44.093 158.943 44.093H158.204V47.5015H160.703V52.7422C160.703 55.536 162.215 57.1224 164.984 57.1224Z" fill="#C9C4C4"/>
<path d="M181.212 54.3302V48.6584C181.212 44.4248 178.061 43.8472 175.441 43.8472C171.615 43.8472 169.597 45.1018 168.969 47.9562L172.918 48.6079C173.152 47.2674 173.977 46.8363 175.158 46.8363C175.921 46.8363 176.955 47.0216 176.955 47.9191C176.955 48.3991 176.647 48.682 175.638 48.9279L173.546 49.4567C170.926 50.1219 168.858 50.9959 168.858 53.7509C168.858 56.5447 170.975 57.3682 172.969 57.3682C174.457 57.3682 176.216 56.9135 177.138 55.7819L177.41 57.1224H181.507V56.7418C181.284 55.9907 181.212 55.3137 181.212 54.3302ZM174.334 54.6738C173.644 54.6738 173.115 54.305 173.115 53.5674C173.115 52.8416 173.498 52.434 174.26 52.1882L177.201 51.2047C177.201 53.5169 175.54 54.6738 174.334 54.6738Z" fill="#C9C4C4"/>
<path d="M28.8103 31.7608C26.9074 31.7608 25.3597 33.3084 25.3597 35.213C25.3597 37.116 26.9074 38.6653 28.8103 38.6653C30.7116 38.6653 32.2592 37.116 32.2592 35.213C32.2592 33.3084 30.7116 31.7608 28.8103 31.7608ZM28.8103 37.2069C27.7106 37.2069 26.8181 36.311 26.8181 35.213C26.8181 34.1134 27.7106 33.2191 28.8103 33.2191C29.9083 33.2191 30.8008 34.1134 30.8008 35.213C30.8008 36.311 29.9083 37.2069 28.8103 37.2069Z" fill="#C9C4C4"/>
<path d="M39.3153 31.7608C37.4123 31.7608 35.8664 33.3084 35.8664 35.213C35.8664 37.116 37.4123 38.6653 39.3153 38.6653C41.2166 38.6653 42.7642 37.116 42.7642 35.213C42.7642 33.3084 41.2166 31.7608 39.3153 31.7608ZM39.3153 37.2069C38.2173 37.2069 37.3231 36.311 37.3231 35.213C37.3231 34.1134 38.2173 33.2191 39.3153 33.2191C40.4133 33.2191 41.3075 34.1134 41.3075 35.213C41.3075 36.311 40.4133 37.2069 39.3153 37.2069Z" fill="#C9C4C4"/>
<path d="M47.1966 60.6452C46.7974 60.5896 46.4303 60.8692 46.3748 61.2683C45.5378 67.3914 40.2449 72.0073 34.0628 72.0073C25.06 72.0073 19.0228 62.661 22.7243 54.4497C24.6407 55.0812 26.9209 55.5325 29.4082 55.7817C29.6002 56.2027 29.5311 56.0764 32.7223 59.2727C33.4616 60.012 34.6623 60.012 35.4016 59.2727C38.5929 56.0781 38.5255 56.2027 38.7158 55.7817C41.1997 55.5325 43.4782 55.0829 45.393 54.453C45.9066 55.5898 46.2484 56.8039 46.4 58.0518C46.4488 58.4526 46.8143 58.7355 47.21 58.6884C47.6108 58.6395 47.8954 58.2758 47.8466 57.8767C47.4845 54.8825 46.1188 51.9421 43.8032 49.6603C42.0283 47.6327 26.0536 47.6731 24.319 49.662C21.6751 52.2688 20.1763 55.7716 20.1763 59.5657C20.1763 67.2298 26.4055 73.4657 34.0628 73.4657C37.4393 73.4657 40.6945 72.2381 43.2273 70.0084C45.7382 67.799 47.3683 64.766 47.8196 61.467C47.8735 61.0679 47.594 60.6991 47.1966 60.6452ZM34.0628 58.3667C33.8136 58.3667 33.9332 58.4206 31.4627 55.9484C33.177 56.0411 34.9469 56.0411 36.6613 55.9484C34.1925 58.4189 34.3121 58.3667 34.0628 58.3667ZM41.9407 50.3204C38.5373 51.2264 29.7231 51.2635 26.1833 50.3204C29.6759 49.3908 38.4463 49.3892 41.9407 50.3204ZM24.7535 51.3207C27.4985 52.8903 40.7383 52.8296 43.3704 51.3207C43.8622 51.8782 44.3135 52.4928 44.7042 53.1412C38.7225 55.0189 29.3998 55.0189 23.4181 53.1395C23.8071 52.4945 24.2534 51.8866 24.7535 51.3207Z" fill="#C9C4C4"/>
<path d="M53.1597 31.0147H50.7499C49.022 26.7154 44.8153 23.6724 39.9098 23.6724H28.2142C23.3103 23.6724 19.1019 26.7154 17.3741 31.0147H14.9659C13.9202 31.0147 13.0714 31.8652 13.0714 32.9109V37.5151C13.0714 38.5609 13.9202 39.4113 14.9659 39.4113H17.2579C18.9066 43.8672 23.1958 47.0534 28.2142 47.0534H39.9098C44.9282 47.0534 49.2174 43.8672 50.866 39.4113H53.1597C54.2038 39.4113 55.0525 38.5609 55.0525 37.5151V32.9109C55.0525 31.8652 54.2038 31.0147 53.1597 31.0147ZM16.8251 37.9529H14.9659C14.7285 37.9529 14.5281 37.7508 14.5281 37.5151V32.9109C14.5281 32.6735 14.7285 32.4731 14.9659 32.4731H16.8975C16.4445 34.2497 16.4159 36.1476 16.8251 37.9529ZM50.1217 35.7957C49.891 41.2317 45.4081 45.595 39.9098 45.595H28.2142C23.6741 45.595 19.8159 42.6143 18.4872 38.5053C18.4839 38.4901 18.4805 38.475 18.4755 38.4598C16.3839 31.919 21.2794 25.1324 28.2142 25.1324H39.9098C45.7399 25.1324 50.3625 30.0161 50.1217 35.7957ZM53.5959 37.5151C53.5959 37.7508 53.3955 37.9529 53.1597 37.9529H51.2988C51.7047 36.1594 51.6828 34.2632 51.2264 32.4731H53.1597C53.3955 32.4731 53.5959 32.6735 53.5959 32.9109V37.5151Z" fill="#C9C4C4"/>
<path d="M39.4248 26.9495H35.762C35.3595 26.9495 35.0345 27.2762 35.0345 27.6787C35.0345 28.0812 35.3595 28.4079 35.762 28.4079H39.4248C43.2559 28.4079 46.3714 31.5284 46.3714 35.3629C46.3714 39.1974 43.2559 42.3162 39.4248 42.3162H28.6992C24.8697 42.3162 21.7526 39.1974 21.7526 35.3629C21.7526 31.5284 24.8697 28.4079 28.6992 28.4079H32.362C32.7644 28.4079 33.0911 28.0828 33.0911 27.6787C33.0911 27.2762 32.7644 26.9495 32.362 26.9495H28.6992C24.0648 26.9495 20.2959 30.7234 20.2959 35.3629C20.2959 40.0024 24.0648 43.7763 28.6992 43.7763H39.4248C44.0592 43.7763 47.8298 40.0024 47.8298 35.3629C47.8298 30.7234 44.0592 26.9495 39.4248 26.9495Z" fill="#C9C4C4"/>
</svg>
